<svg id="Group_29" data-name="Group 29" xmlns="http://www.w3.org/2000/svg" width="217.114" height="88.925" viewBox="0 0 217.114 88.925">
  <g id="Group_5" data-name="Group 5" transform="translate(76.482 30.982)">
    <path id="Path_29" data-name="Path 29" d="M1100.112,1070.9l-.75,6.024h-22.44l.48-.954a6.206,6.206,0,0,0,.5-1.458v-35.77a11.631,11.631,0,0,0-.5-1.46l-.48-.955h6.994l-.481.954a6.448,6.448,0,0,0-.5,1.46l0,33.227h13.953a4.294,4.294,0,0,0,2.125-.5Z" transform="translate(-1076.921 -1035.792)" fill="#228acd"/>
    <path id="Path_30" data-name="Path 30" d="M1138.741,1056.665a20.983,20.983,0,1,1-6.189-14.718A20.543,20.543,0,0,1,1138.741,1056.665Zm-5.2.038a15.944,15.944,0,1,0-15.927,15.978A15.784,15.784,0,0,0,1133.538,1056.7Z" transform="translate(-1074.683 -1035.846)" fill="#228acd"/>
    <path id="Path_31" data-name="Path 31" d="M1170.868,1037.26a6.335,6.335,0,0,0-.5,1.459l0,25.159c0,7.691-6.214,13.492-14.411,13.492h-1.817c-8.19,0-14.4-5.752-14.4-13.444v-25.188a6.255,6.255,0,0,0-.5-1.459l-.482-.955h7l-.484.955a6.249,6.249,0,0,0-.5,1.459l0,25.682c.281,4.656,4.129,7.983,9.376,7.983h1.817c5.286,0,9.157-3.373,9.39-8.079v-25.558l-.007-.048a6.368,6.368,0,0,0-.5-1.458l-.483-.956h7Z" transform="translate(-1069.879 -1035.794)" fill="#228acd"/>
    <path id="Path_32" data-name="Path 32" d="M1206.45,1059.07a20.759,20.759,0,0,1-4.806,10.858,21.2,21.2,0,0,1-6.429,5.107,20.578,20.578,0,0,1-8.615,1.865l-12.855.012.483-.954a6.383,6.383,0,0,0,.507-1.464l0-35.719,0-.048a6.366,6.366,0,0,0-.507-1.462l-.483-.957c2.075,0,12.492,0,12.849.014a20.534,20.534,0,0,1,8.621,1.865,21.209,21.209,0,0,1,6.429,5.107,20.75,20.75,0,0,1,4.806,10.858A39.285,39.285,0,0,1,1206.45,1059.07Zm-5.052-2.459a15.656,15.656,0,0,0-9.359-14.489,19.486,19.486,0,0,0-7-1.263h-5.291v31.5h5.291a19.508,19.508,0,0,0,7.024-1.274A15.638,15.638,0,0,0,1201.4,1056.61Z" transform="translate(-1065.895 -1035.793)" fill="#228acd"/>
  </g>
  <path id="Path_33" data-name="Path 33" d="M1213.409,1019.146c-.155-.06-.308-.123-.464-.179a22.738,22.738,0,0,0-27.432,10.3c-.8-.252-1.626-.473-2.455-.653a29.029,29.029,0,0,0-6.2-.672,29.364,29.364,0,0,0-4.489.362q-.536.084-1.066.185a34.083,34.083,0,0,0-60.943-1.227,32.01,32.01,0,0,0-29.586.1,39.934,39.934,0,1,0-46.49,58.158c10.87,3.373,26.353,1.553,33.754-5.557a22.528,22.528,0,0,0,5.656-8.942h-9.508c-3.76,8.413-12.482,8.807-20.624,8.807a32.521,32.521,0,1,1,32.371-45.736l1.84,4.079,3.659-2.588a24.6,24.6,0,0,1,28.454.015l3.945,2.8,1.668-4.533a26.67,26.67,0,0,1,50.13.239l1.2,3.368,3.409-1.1a21.3,21.3,0,0,1,3.255-.778,22.281,22.281,0,0,1,8,.25,21.382,21.382,0,0,1,4.383,1.47l3.675,1.7,1.361-3.808a15.363,15.363,0,0,1,19.569-9.269,15.189,15.189,0,0,1,2.924,1.41Z" transform="translate(-1006.296 -1007.504)" fill="#228acd"/>
  <g id="Group_6" data-name="Group 6" transform="translate(75.416 74.302)">
    <path id="Path_34" data-name="Path 34" d="M1076.622,1086.5a.687.687,0,0,1-.48-.165.548.548,0,0,1-.178-.431,1.665,1.665,0,0,1,.1-.5l3.272-9.108a1.415,1.415,0,0,1,.383-.615,1.037,1.037,0,0,1,1.21,0,1.406,1.406,0,0,1,.38.615l3.263,9.112a1.5,1.5,0,0,1,.1.492.558.558,0,0,1-.182.439.706.706,0,0,1-.486.163.672.672,0,0,1-.461-.152,1.078,1.078,0,0,1-.287-.5l-.911-2.7-4.063,0-.917,2.7a1.052,1.052,0,0,1-.286.5A.693.693,0,0,1,1076.622,1086.5Zm2.039-4.472,3.315,0-1.627-4.822h-.055Z" transform="translate(-1075.964 -1074.959)" fill="#228acd"/>
    <path id="Path_35" data-name="Path 35" d="M1090.693,1085.139a1.791,1.791,0,0,1-.892,1.041,3.185,3.185,0,0,1-1.629.408,3.037,3.037,0,0,1-2.343-.949,3.568,3.568,0,0,1-.876-2.517l0-1.666a3.527,3.527,0,0,1,.9-2.526,3.409,3.409,0,0,1,3.892-.58,1.939,1.939,0,0,1,.9,1h.064l0-3.577a.82.82,0,0,1,.178-.562.743.743,0,0,1,1.012,0,.817.817,0,0,1,.178.563l-.005,10a.853.853,0,0,1-.168.563.6.6,0,0,1-.485.2.594.594,0,0,1-.476-.195.858.858,0,0,1-.176-.55l0-.65Zm-4.349-2.326a2.89,2.89,0,0,0,.568,1.9,1.953,1.953,0,0,0,1.586.682,2.059,2.059,0,0,0,1.605-.656,2.559,2.559,0,0,0,.6-1.784l0-1.5a2.243,2.243,0,0,0-.635-1.636,2.171,2.171,0,0,0-1.615-.647,1.886,1.886,0,0,0-1.551.684,2.932,2.932,0,0,0-.557,1.9Z" transform="translate(-1074.941 -1075.013)" fill="#228acd"/>
    <path id="Path_36" data-name="Path 36" d="M1095.119,1084.916l-2.1-6a1.374,1.374,0,0,1-.114-.484.632.632,0,0,1,.2-.464.662.662,0,0,1,.479-.194c.365,0,.613.229.745.689l1.9,6.338h.066l2.054-6.336a1.163,1.163,0,0,1,.287-.526.629.629,0,0,1,.445-.162.621.621,0,0,1,.459.19.631.631,0,0,1,.192.468,1.246,1.246,0,0,1-.119.484l-2.165,6a3.625,3.625,0,0,1-.523,1.058.815.815,0,0,1-.639.25.85.85,0,0,1-.665-.258A3.244,3.244,0,0,1,1095.119,1084.916Z" transform="translate(-1074.035 -1074.699)" fill="#228acd"/>
    <path id="Path_37" data-name="Path 37" d="M1100.1,1082.661l0-1.317a3.682,3.682,0,0,1,.974-2.641,3.331,3.331,0,0,1,2.52-1.02,3.253,3.253,0,0,1,2.443.98,3.471,3.471,0,0,1,.949,2.52,1.877,1.877,0,0,1-.155.92.663.663,0,0,1-.594.236l-4.756,0v.437a2.378,2.378,0,0,0,.62,1.716,2.248,2.248,0,0,0,1.686.632,2.358,2.358,0,0,0,1.7-.64,3.823,3.823,0,0,1,.452-.381.564.564,0,0,1,.3-.079.492.492,0,0,1,.383.166.6.6,0,0,1,.149.412,1.163,1.163,0,0,1-.389.793,2.718,2.718,0,0,1-1.11.666,4.781,4.781,0,0,1-1.556.244,3.361,3.361,0,0,1-3.625-3.641Zm1.385-1.434,4.143,0v-.024a2.543,2.543,0,0,0-.546-1.713,1.848,1.848,0,0,0-1.473-.635,1.961,1.961,0,0,0-1.534.649,2.423,2.423,0,0,0-.59,1.7Z" transform="translate(-1073.215 -1074.709)" fill="#228acd"/>
    <path id="Path_38" data-name="Path 38" d="M1109.51,1085.48a.815.815,0,0,1-.18.559.636.636,0,0,1-.5.2.643.643,0,0,1-.5-.2.8.8,0,0,1-.183-.559l0-6.971a.8.8,0,0,1,.187-.555.651.651,0,0,1,.5-.206.625.625,0,0,1,.495.2.81.81,0,0,1,.174.548v.316h.039a2.054,2.054,0,0,1,1.847-1.117,1.106,1.106,0,0,1,.588.145.536.536,0,0,1,.269.5.542.542,0,0,1-.269.516,1.278,1.278,0,0,1-.605.11q-1.861.015-1.862,2.036Z" transform="translate(-1072.299 -1074.708)" fill="#228acd"/>
    <path id="Path_39" data-name="Path 39" d="M1114.162,1084.155l0-4.963h-.6a.678.678,0,0,1-.465-.152.531.531,0,0,1-.172-.42.544.544,0,0,1,.172-.424.669.669,0,0,1,.465-.154h.612l0-1.373a.793.793,0,0,1,.179-.555.635.635,0,0,1,.5-.2.647.647,0,0,1,.5.2.806.806,0,0,1,.178.555l0,1.374h1.123a.663.663,0,0,1,.463.154.539.539,0,0,1,.173.424.526.526,0,0,1-.173.42.674.674,0,0,1-.463.151h-1.114l0,4.98a1.446,1.446,0,0,0,.207.907,1.007,1.007,0,0,0,.787.244c.08,0,.178,0,.3-.012s.2-.012.236-.012a.521.521,0,0,1,.377.138.488.488,0,0,1,.148.369.551.551,0,0,1-.35.525,2.257,2.257,0,0,1-.986.166,2.108,2.108,0,0,1-1.619-.524A2.725,2.725,0,0,1,1114.162,1084.155Z" transform="translate(-1071.755 -1074.91)" fill="#228acd"/>
    <path id="Path_40" data-name="Path 40" d="M1118.759,1076.657a.835.835,0,0,1-.254-.622.826.826,0,0,1,.25-.615.862.862,0,0,1,.618-.241.908.908,0,0,1,.644.243.813.813,0,0,1,.255.615.841.841,0,0,1-.257.621.871.871,0,0,1-.644.25A.841.841,0,0,1,1118.759,1076.657Zm1.3,9.117a.777.777,0,0,1-.191.567.717.717,0,0,1-.985,0,.772.772,0,0,1-.191-.564l0-6.971a.777.777,0,0,1,.19-.567.673.673,0,0,1,.5-.194.642.642,0,0,1,.487.2.792.792,0,0,1,.187.563Z" transform="translate(-1071.119 -1074.994)" fill="#228acd"/>
    <path id="Path_41" data-name="Path 41" d="M1121.735,1084.474a.611.611,0,0,1,.159-.449.58.58,0,0,1,.437-.161c.2,0,.424.151.668.452a2.53,2.53,0,0,0,2.011.881,2.159,2.159,0,0,0,1.276-.336,1.065,1.065,0,0,0,.475-.915,1.05,1.05,0,0,0-.307-.755,1.72,1.72,0,0,0-.852-.453l-1.591-.365q-2.157-.493-2.153-2.238a2.159,2.159,0,0,1,.831-1.776,3.454,3.454,0,0,1,2.224-.664,3.885,3.885,0,0,1,2.192.6,2.209,2.209,0,0,1,.595.571,1.1,1.1,0,0,1,.217.626.546.546,0,0,1-.159.412.661.661,0,0,1-.74.068,2.428,2.428,0,0,1-.389-.338,2.841,2.841,0,0,0-.823-.635,2.184,2.184,0,0,0-.95-.19,1.981,1.981,0,0,0-1.212.327,1.072,1.072,0,0,0-.443.908.962.962,0,0,0,.3.733,2.1,2.1,0,0,0,.927.441l1.55.374a3.245,3.245,0,0,1,1.612.806,1.974,1.974,0,0,1,.518,1.431,2.185,2.185,0,0,1-.851,1.812,3.645,3.645,0,0,1-2.315.668,4.545,4.545,0,0,1-2.274-.549A1.518,1.518,0,0,1,1121.735,1084.474Z" transform="translate(-1070.751 -1074.707)" fill="#228acd"/>
    <path id="Path_42" data-name="Path 42" d="M1129.4,1076.664a.837.837,0,0,1-.255-.622.817.817,0,0,1,.251-.614.857.857,0,0,1,.618-.241.9.9,0,0,1,.644.241.811.811,0,0,1,.254.615.845.845,0,0,1-.256.621.879.879,0,0,1-.644.251A.84.84,0,0,1,1129.4,1076.664Zm1.3,9.116a.786.786,0,0,1-.191.567.66.66,0,0,1-.493.194.652.652,0,0,1-.492-.2.778.778,0,0,1-.192-.565l0-6.971a.771.771,0,0,1,.191-.566.67.67,0,0,1,.5-.2.641.641,0,0,1,.488.2.793.793,0,0,1,.187.563Z" transform="translate(-1069.907 -1074.993)" fill="#228acd"/>
    <path id="Path_43" data-name="Path 43" d="M1139.622,1085.5a.805.805,0,0,1-.183.559.653.653,0,0,1-.509.2.639.639,0,0,1-.5-.2.8.8,0,0,1-.183-.559l0-4.607a2.07,2.07,0,0,0-.472-1.473,1.77,1.77,0,0,0-1.355-.5,2.055,2.055,0,0,0-1.638.693,2.806,2.806,0,0,0-.607,1.907l0,3.98a.8.8,0,0,1-.183.559.723.723,0,0,1-1,0,.8.8,0,0,1-.185-.559l0-6.971a.8.8,0,0,1,.185-.559.645.645,0,0,1,.5-.2.631.631,0,0,1,.5.2.786.786,0,0,1,.181.547v.857h.07a2.264,2.264,0,0,1,.922-1.224,3.328,3.328,0,0,1,3.713.3,2.708,2.708,0,0,1,.747,2.043Z" transform="translate(-1069.491 -1074.706)" fill="#228acd"/>
    <path id="Path_44" data-name="Path 44" d="M1146.385,1084.8a2.133,2.133,0,0,1-.886.94,2.9,2.9,0,0,1-1.493.368,3.159,3.159,0,0,1-2.342-.954,3.437,3.437,0,0,1-.94-2.53v-1.412a3.473,3.473,0,0,1,.94-2.536,3.131,3.131,0,0,1,2.33-.959,2.88,2.88,0,0,1,1.566.411,2.206,2.206,0,0,1,.9.979h.062v-.587a.781.781,0,0,1,.177-.558.684.684,0,0,1,.948.007.806.806,0,0,1,.18.568l0,7.414a3.192,3.192,0,0,1-.968,2.518,3.777,3.777,0,0,1-2.589.85,4.389,4.389,0,0,1-2.337-.572,2.469,2.469,0,0,1-.648-.568,1.033,1.033,0,0,1-.249-.637.581.581,0,0,1,.158-.425.567.567,0,0,1,.422-.164.7.7,0,0,1,.175.02.546.546,0,0,1,.167.079c.057.04.1.069.122.087s.074.065.148.135.12.115.135.132a2.631,2.631,0,0,0,1.854.714,2.3,2.3,0,0,0,1.645-.569,2.063,2.063,0,0,0,.607-1.572V1084.8Zm-4.276-2.444a2.707,2.707,0,0,0,.621,1.858,2.051,2.051,0,0,0,1.618.712,1.9,1.9,0,0,0,1.547-.676,2.48,2.48,0,0,0,.561-1.63v-1.357a2.517,2.517,0,0,0-.575-1.666,1.953,1.953,0,0,0-1.58-.69,1.981,1.981,0,0,0-1.592.712,2.8,2.8,0,0,0-.6,1.871Z" transform="translate(-1068.589 -1074.705)" fill="#228acd"/>
    <path id="Path_45" data-name="Path 45" d="M1152.2,1086.541a.682.682,0,0,1-.481-.164.557.557,0,0,1-.18-.432,1.633,1.633,0,0,1,.1-.5l3.274-9.109a1.393,1.393,0,0,1,.383-.614,1.031,1.031,0,0,1,1.208,0,1.388,1.388,0,0,1,.381.614l3.263,9.114a1.5,1.5,0,0,1,.1.491.555.555,0,0,1-.183.439.7.7,0,0,1-.484.164.683.683,0,0,1-.462-.151,1.09,1.09,0,0,1-.285-.5l-.915-2.705-4.061,0-.918,2.7a1.073,1.073,0,0,1-.285.5A.7.7,0,0,1,1152.2,1086.541Zm2.037-4.472,3.317,0-1.627-4.822h-.056Z" transform="translate(-1067.357 -1074.954)" fill="#228acd"/>
    <path id="Path_46" data-name="Path 46" d="M1166.2,1084.808a2.138,2.138,0,0,1-.888.939,2.886,2.886,0,0,1-1.493.367,3.157,3.157,0,0,1-2.34-.952,3.434,3.434,0,0,1-.94-2.531v-1.411a3.466,3.466,0,0,1,.94-2.536,3.121,3.121,0,0,1,2.329-.959,2.9,2.9,0,0,1,1.567.41,2.206,2.206,0,0,1,.9.979h.063v-.586a.782.782,0,0,1,.176-.558.684.684,0,0,1,.949.008.809.809,0,0,1,.18.567l0,7.414a3.193,3.193,0,0,1-.968,2.519,3.786,3.786,0,0,1-2.589.85,4.4,4.4,0,0,1-2.336-.571,2.455,2.455,0,0,1-.648-.568,1.041,1.041,0,0,1-.251-.64.555.555,0,0,1,.582-.586.733.733,0,0,1,.174.02.5.5,0,0,1,.167.079l.122.087c.023.019.073.064.148.134l.135.131a2.631,2.631,0,0,0,1.854.715,2.287,2.287,0,0,0,1.644-.571,2.057,2.057,0,0,0,.607-1.571v-1.181Zm-4.277-2.445a2.71,2.71,0,0,0,.623,1.859,2.049,2.049,0,0,0,1.618.712,1.893,1.893,0,0,0,1.547-.677,2.474,2.474,0,0,0,.561-1.628v-1.357a2.517,2.517,0,0,0-.574-1.666,1.953,1.953,0,0,0-1.58-.69,1.981,1.981,0,0,0-1.593.712,2.8,2.8,0,0,0-.6,1.871Z" transform="translate(-1066.333 -1074.704)" fill="#228acd"/>
    <path id="Path_47" data-name="Path 47" d="M1168.845,1082.7v-1.317a3.678,3.678,0,0,1,.975-2.64,3.33,3.33,0,0,1,2.52-1.021,3.255,3.255,0,0,1,2.444.981,3.469,3.469,0,0,1,.948,2.519,1.875,1.875,0,0,1-.155.92.659.659,0,0,1-.594.237l-4.755,0v.436a2.377,2.377,0,0,0,.619,1.717,2.242,2.242,0,0,0,1.686.632,2.349,2.349,0,0,0,1.7-.641,3.8,3.8,0,0,1,.453-.381.56.56,0,0,1,.3-.078.492.492,0,0,1,.383.166.591.591,0,0,1,.151.412,1.165,1.165,0,0,1-.39.793,2.7,2.7,0,0,1-1.109.665,4.718,4.718,0,0,1-1.556.244,3.586,3.586,0,0,1-2.656-.975A3.63,3.63,0,0,1,1168.845,1082.7Zm1.385-1.434,4.141,0v-.025a2.545,2.545,0,0,0-.546-1.713,1.852,1.852,0,0,0-1.472-.635,1.97,1.97,0,0,0-1.534.65,2.42,2.42,0,0,0-.589,1.7Z" transform="translate(-1065.386 -1074.705)" fill="#228acd"/>
    <path id="Path_48" data-name="Path 48" d="M1183.7,1085.525a.8.8,0,0,1-.182.559.651.651,0,0,1-.509.2.639.639,0,0,1-.5-.2.8.8,0,0,1-.184-.559l0-4.607a2.086,2.086,0,0,0-.471-1.472,1.778,1.778,0,0,0-1.358-.5,2.066,2.066,0,0,0-1.638.693,2.813,2.813,0,0,0-.6,1.908l0,3.98a.807.807,0,0,1-.182.559.72.72,0,0,1-1,0,.8.8,0,0,1-.183-.559l0-6.97a.8.8,0,0,1,.183-.56.724.724,0,0,1,1,0,.785.785,0,0,1,.178.548v.855h.072a2.257,2.257,0,0,1,.922-1.224,3.324,3.324,0,0,1,3.714.294,2.723,2.723,0,0,1,.746,2.044Z" transform="translate(-1064.471 -1074.703)" fill="#228acd"/>
    <path id="Path_49" data-name="Path 49" d="M1184.794,1082.759v-1.444a3.652,3.652,0,0,1,.92-2.613,3.329,3.329,0,0,1,2.541-.969,3.808,3.808,0,0,1,2,.5,2.723,2.723,0,0,1,.74.638,1.223,1.223,0,0,1,.3.774.662.662,0,0,1-.157.455.545.545,0,0,1-.433.178.641.641,0,0,1-.318-.079.752.752,0,0,1-.211-.159c-.045-.053-.1-.13-.178-.23a2,2,0,0,0-1.725-.865,1.872,1.872,0,0,0-1.547.665,2.744,2.744,0,0,0-.537,1.777v1.3a2.773,2.773,0,0,0,.53,1.781,1.874,1.874,0,0,0,1.558.671,2.071,2.071,0,0,0,1.751-.863c.074-.095.13-.166.174-.214a1.02,1.02,0,0,1,.212-.163.577.577,0,0,1,.313-.092.59.59,0,0,1,.417.159.607.607,0,0,1,.172.468,1.257,1.257,0,0,1-.3.777,2.514,2.514,0,0,1-.773.651,3.826,3.826,0,0,1-1.971.49,3.372,3.372,0,0,1-2.561-.969A3.64,3.64,0,0,1,1184.794,1082.759Z" transform="translate(-1063.57 -1074.703)" fill="#228acd"/>
    <path id="Path_50" data-name="Path 50" d="M1192.054,1088.562a.47.47,0,0,1,.175-.38.708.708,0,0,1,.461-.142c.032,0,.1,0,.195.008s.179.008.242.008a1.063,1.063,0,0,0,.76-.341,2.019,2.019,0,0,0,.507-.9c0-.006.021-.087.063-.246l.072-.237-2.683-7.345a1.391,1.391,0,0,1-.1-.484.624.624,0,0,1,.2-.468.7.7,0,0,1,.5-.191c.335,0,.573.231.716.692l2.055,6.312h.064l2.062-6.31c.144-.46.381-.691.709-.691a.68.68,0,0,1,.486.188.626.626,0,0,1,.189.463,1.41,1.41,0,0,1-.111.492l-2.819,7.833a4.305,4.305,0,0,1-1.1,1.828,2.417,2.417,0,0,1-1.635.557,1.216,1.216,0,0,1-.851-.254A.53.53,0,0,1,1192.054,1088.562Z" transform="translate(-1062.779 -1074.691)" fill="#228acd"/>
  </g>
</svg>
